<?xml version="1.0" encoding="UTF-8"?>
<svg xmlns="http://www.w3.org/2000/svg" xmlns:xlink="http://www.w3.org/1999/xlink" width="28px" height="31px" viewBox="0 0 28 28" version="1.1">
<g id="surface1">
<path style=" stroke:none;fill-rule:nonzero;fill:rgb(0%,0%,0%);fill-opacity:1;" d="M 27.964844 13.875 C 27.066406 11.597656 25.566406 9.628906 23.625 8.175781 C 21.671875 6.710938 19.371094 5.847656 16.957031 5.675781 L 11.984375 3.160156 C 11.972656 3.152344 11.964844 3.148438 11.953125 3.144531 C 11.726562 3.046875 11.496094 3 11.269531 3 C 10.347656 3 9.652344 3.777344 9.652344 4.808594 C 9.652344 5.472656 9.953125 6.042969 10.308594 6.703125 C 10.351562 6.785156 10.394531 6.867188 10.441406 6.953125 C 8.363281 7.992188 6.5625 9.613281 5.289062 11.59375 L 1.890625 9.511719 C 1.871094 9.496094 1.847656 9.484375 1.824219 9.476562 C 1.648438 9.398438 1.464844 9.363281 1.285156 9.363281 C 0.550781 9.363281 0 9.972656 0 10.777344 C 0 11.722656 1.054688 13.335938 1.566406 14.066406 C 1.054688 14.792969 0 16.40625 0 17.351562 C 0 18.160156 0.550781 18.769531 1.285156 18.769531 C 1.464844 18.769531 1.648438 18.730469 1.824219 18.652344 C 1.847656 18.644531 1.871094 18.632812 1.890625 18.621094 L 5.289062 16.535156 C 6.558594 18.519531 8.300781 20.097656 10.375 21.140625 C 10.339844 21.210938 10.308594 21.273438 10.273438 21.339844 C 9.9375 21.988281 9.652344 22.546875 9.652344 23.191406 C 9.652344 24.222656 10.347656 25 11.269531 25 C 11.5 25 11.726562 24.953125 11.953125 24.855469 C 11.964844 24.851562 11.972656 24.847656 11.984375 24.839844 L 16.625 22.476562 C 21.636719 22.246094 26.082031 19.03125 27.964844 14.253906 C 28.011719 14.132812 28.011719 13.996094 27.964844 13.875 Z M 20.886719 20.386719 C 19.453125 18.894531 18.601562 16.507812 18.601562 13.953125 C 18.601562 12.777344 18.777344 11.644531 19.121094 10.585938 C 19.210938 10.3125 19.058594 10.023438 18.789062 9.933594 C 18.515625 9.84375 18.222656 9.992188 18.132812 10.265625 C 17.757812 11.425781 17.5625 12.667969 17.5625 13.953125 C 17.5625 16.605469 18.414062 19.113281 19.863281 20.800781 C 18.785156 21.179688 17.644531 21.402344 16.46875 21.445312 C 16.394531 21.449219 16.320312 21.464844 16.253906 21.5 L 11.53125 23.90625 C 11.441406 23.945312 11.351562 23.964844 11.269531 23.964844 C 10.933594 23.964844 10.6875 23.640625 10.6875 23.191406 C 10.6875 22.800781 10.902344 22.386719 11.195312 21.816406 C 11.300781 21.609375 11.421875 21.375 11.542969 21.121094 C 11.601562 20.996094 11.605469 20.851562 11.558594 20.722656 C 11.511719 20.589844 11.414062 20.484375 11.285156 20.429688 C 9.035156 19.410156 7.175781 17.726562 5.910156 15.558594 C 5.839844 15.441406 5.722656 15.351562 5.585938 15.320312 C 5.546875 15.308594 5.503906 15.304688 5.460938 15.304688 C 5.367188 15.304688 5.273438 15.328125 5.191406 15.378906 L 1.386719 17.710938 C 1.351562 17.722656 1.316406 17.730469 1.285156 17.730469 C 1.140625 17.730469 1.035156 17.574219 1.035156 17.351562 C 1.035156 16.777344 1.964844 15.261719 2.625 14.375 C 2.757812 14.191406 2.757812 13.9375 2.625 13.757812 C 1.964844 12.867188 1.035156 11.355469 1.035156 10.777344 C 1.035156 10.554688 1.140625 10.398438 1.285156 10.398438 C 1.316406 10.398438 1.351562 10.40625 1.386719 10.417969 L 5.191406 12.75 C 5.308594 12.820312 5.453125 12.84375 5.585938 12.808594 C 5.722656 12.777344 5.839844 12.6875 5.910156 12.570312 C 7.171875 10.410156 9.105469 8.667969 11.355469 7.671875 C 11.484375 7.613281 11.582031 7.507812 11.632812 7.375 C 11.679688 7.242188 11.671875 7.097656 11.613281 6.972656 C 11.476562 6.691406 11.339844 6.4375 11.222656 6.214844 C 10.910156 5.632812 10.6875 5.210938 10.6875 4.808594 C 10.6875 4.359375 10.933594 4.035156 11.269531 4.035156 C 11.351562 4.035156 11.441406 4.054688 11.53125 4.09375 L 16.582031 6.648438 C 16.644531 6.679688 16.714844 6.695312 16.785156 6.703125 C 17.789062 6.765625 18.773438 6.960938 19.71875 7.277344 C 19.46875 7.585938 19.234375 7.921875 19.023438 8.28125 C 18.875 8.527344 18.957031 8.847656 19.203125 8.992188 C 19.289062 9.042969 19.378906 9.066406 19.46875 9.066406 C 19.644531 9.066406 19.816406 8.972656 19.914062 8.808594 C 20.164062 8.390625 20.441406 8.011719 20.742188 7.675781 C 21.535156 8.027344 22.296875 8.472656 23.003906 9.003906 C 24.738281 10.300781 26.089844 12.046875 26.921875 14.0625 C 25.738281 16.921875 23.554688 19.15625 20.886719 20.386719 Z M 20.886719 20.386719 "/>
<path style=" stroke:none;fill-rule:nonzero;fill:rgb(0%,0%,0%);fill-opacity:1;" d="M 22.296875 10.957031 C 21.445312 10.957031 20.753906 11.648438 20.753906 12.5 C 20.753906 13.351562 21.445312 14.042969 22.296875 14.042969 C 23.148438 14.042969 23.839844 13.351562 23.839844 12.5 C 23.839844 11.648438 23.148438 10.957031 22.296875 10.957031 Z M 22.296875 13.007812 C 22.019531 13.007812 21.789062 12.777344 21.789062 12.5 C 21.789062 12.21875 22.019531 11.992188 22.296875 11.992188 C 22.578125 11.992188 22.804688 12.21875 22.804688 12.5 C 22.804688 12.777344 22.578125 13.007812 22.296875 13.007812 Z M 22.296875 13.007812 "/>
</g>
</svg>
