<?xml version="1.0" encoding="UTF-8"?>
<svg xmlns="http://www.w3.org/2000/svg" xmlns:xlink="http://www.w3.org/1999/xlink" width="28px" height="31px" viewBox="0 0 28 28" version="1.1">
<g id="surface1">
<path style=" stroke:none;fill-rule:nonzero;fill:rgb(0%,0%,0%);fill-opacity:1;" d="M 18.734375 9.90625 L 9.265625 9.90625 C 7.007812 9.90625 5.167969 11.742188 5.167969 14 C 5.167969 16.257812 7.007812 18.09375 9.265625 18.09375 L 18.734375 18.09375 C 20.992188 18.09375 22.832031 16.257812 22.832031 14 C 22.832031 11.742188 20.992188 9.90625 18.734375 9.90625 Z M 6.546875 14 C 6.546875 12.503906 7.765625 11.285156 9.265625 11.285156 C 10.761719 11.285156 11.980469 12.503906 11.980469 14 C 11.980469 15.496094 10.761719 16.714844 9.265625 16.714844 C 7.765625 16.714844 6.546875 15.496094 6.546875 14 Z M 18.734375 16.714844 L 12.324219 16.714844 C 12.96875 15.992188 13.359375 15.042969 13.359375 14 C 13.359375 12.957031 12.96875 12.007812 12.324219 11.285156 L 18.734375 11.285156 C 20.234375 11.285156 21.453125 12.503906 21.453125 14 C 21.453125 15.496094 20.234375 16.714844 18.734375 16.714844 Z M 18.734375 16.714844 "/>
<path style=" stroke:none;fill-rule:nonzero;fill:rgb(0%,0%,0%);fill-opacity:1;" d="M 18.734375 19.8125 L 9.265625 19.8125 C 7.007812 19.8125 5.167969 21.648438 5.167969 23.90625 C 5.167969 26.164062 7.007812 28 9.265625 28 L 18.734375 28 C 20.992188 28 22.832031 26.164062 22.832031 23.90625 C 22.832031 21.648438 20.992188 19.8125 18.734375 19.8125 Z M 6.546875 23.90625 C 6.546875 22.40625 7.765625 21.191406 9.265625 21.191406 C 10.761719 21.191406 11.980469 22.40625 11.980469 23.90625 C 11.980469 25.402344 10.761719 26.621094 9.265625 26.621094 C 7.765625 26.621094 6.546875 25.402344 6.546875 23.90625 Z M 18.734375 26.621094 L 12.324219 26.621094 C 12.96875 25.898438 13.359375 24.945312 13.359375 23.90625 C 13.359375 22.863281 12.96875 21.914062 12.324219 21.191406 L 18.734375 21.191406 C 20.234375 21.191406 21.453125 22.40625 21.453125 23.90625 C 21.453125 25.402344 20.234375 26.621094 18.734375 26.621094 Z M 18.734375 26.621094 "/>
<path style=" stroke:none;fill-rule:nonzero;fill:rgb(0%,0%,0%);fill-opacity:1;" d="M 9.265625 8.1875 L 18.734375 8.1875 C 20.992188 8.1875 22.832031 6.351562 22.832031 4.09375 C 22.832031 1.835938 20.992188 0 18.734375 0 L 9.265625 0 C 7.007812 0 5.167969 1.835938 5.167969 4.09375 C 5.167969 6.351562 7.007812 8.1875 9.265625 8.1875 Z M 21.453125 4.09375 C 21.453125 5.59375 20.234375 6.808594 18.734375 6.808594 C 17.238281 6.808594 16.019531 5.59375 16.019531 4.09375 C 16.019531 2.597656 17.238281 1.378906 18.734375 1.378906 C 20.234375 1.378906 21.453125 2.597656 21.453125 4.09375 Z M 9.265625 1.378906 L 15.675781 1.378906 C 15.03125 2.101562 14.640625 3.054688 14.640625 4.09375 C 14.640625 5.136719 15.03125 6.085938 15.675781 6.808594 L 9.265625 6.808594 C 7.765625 6.808594 6.546875 5.59375 6.546875 4.09375 C 6.546875 2.597656 7.765625 1.378906 9.265625 1.378906 Z M 9.265625 1.378906 "/>
</g>
</svg>
