<?xml version="1.0" encoding="UTF-8"?>
<svg xmlns="http://www.w3.org/2000/svg" xmlns:xlink="http://www.w3.org/1999/xlink" width="28px" height="31px" viewBox="0 0 28 28" version="1.1">
<g id="surface1">
<path style=" stroke:none;fill-rule:nonzero;fill:rgb(13.72549%,12.156863%,12.54902%);fill-opacity:1;" d="M 1.171875 23.652344 L 5.332031 23.652344 C 5.648438 23.652344 5.902344 23.394531 5.902344 23.082031 L 5.902344 6.34375 C 5.902344 6.027344 5.644531 5.773438 5.332031 5.773438 L 1.171875 5.773438 C 0.851562 5.773438 0.601562 6.03125 0.601562 6.34375 L 0.601562 23.082031 C 0.601562 23.402344 0.859375 23.652344 1.171875 23.652344 Z M 1.746094 6.914062 L 4.761719 6.914062 L 4.761719 22.507812 L 1.746094 22.507812 Z M 1.746094 6.914062 "/>
<path style=" stroke:none;fill-rule:nonzero;fill:rgb(13.72549%,12.156863%,12.54902%);fill-opacity:1;" d="M 8.339844 23.652344 L 12.5 23.652344 C 12.820312 23.652344 13.070312 23.394531 13.070312 23.082031 L 13.070312 11.445312 C 13.070312 11.128906 12.8125 10.878906 12.5 10.878906 L 8.339844 10.878906 C 8.023438 10.878906 7.769531 11.132812 7.769531 11.445312 L 7.769531 23.082031 C 7.765625 23.402344 8.023438 23.652344 8.339844 23.652344 Z M 8.910156 12.019531 L 11.925781 12.019531 L 11.925781 22.515625 L 8.910156 22.515625 Z M 8.910156 12.019531 "/>
<path style=" stroke:none;fill-rule:nonzero;fill:rgb(13.72549%,12.156863%,12.54902%);fill-opacity:1;" d="M 15.503906 23.652344 L 19.664062 23.652344 C 19.984375 23.652344 20.234375 23.394531 20.234375 23.082031 L 20.234375 2.53125 C 20.234375 2.214844 19.976562 1.964844 19.664062 1.964844 L 15.503906 1.964844 C 15.1875 1.964844 14.933594 2.21875 14.933594 2.53125 L 14.933594 23.082031 C 14.933594 23.402344 15.1875 23.652344 15.503906 23.652344 Z M 16.074219 3.101562 L 19.089844 3.101562 L 19.089844 22.515625 L 16.074219 22.515625 Z M 16.074219 3.101562 "/>
<path style=" stroke:none;fill-rule:nonzero;fill:rgb(13.72549%,12.156863%,12.54902%);fill-opacity:1;" d="M 26.828125 8.351562 L 22.667969 8.351562 C 22.351562 8.351562 22.097656 8.609375 22.097656 8.917969 L 22.097656 23.082031 C 22.097656 23.402344 22.355469 23.652344 22.667969 23.652344 L 26.828125 23.652344 C 27.148438 23.652344 27.398438 23.394531 27.398438 23.082031 L 27.398438 8.917969 C 27.398438 8.609375 27.140625 8.351562 26.828125 8.351562 Z M 26.253906 22.515625 L 23.238281 22.515625 L 23.238281 9.492188 L 26.253906 9.492188 Z M 26.253906 22.515625 "/>
<path style=" stroke:none;fill-rule:nonzero;fill:rgb(13.72549%,12.156863%,12.54902%);fill-opacity:1;" d="M 26.828125 24.898438 L 1.171875 24.898438 C 0.851562 24.898438 0.601562 25.15625 0.601562 25.46875 C 0.601562 25.78125 0.859375 26.035156 1.171875 26.035156 L 26.824219 26.035156 C 27.140625 26.035156 27.394531 25.78125 27.394531 25.46875 C 27.394531 25.15625 27.140625 24.898438 26.828125 24.898438 Z M 26.828125 24.898438 "/>
</g>
</svg>
