<?xml version="1.0" encoding="UTF-8"?>
<svg xmlns="http://www.w3.org/2000/svg" xmlns:xlink="http://www.w3.org/1999/xlink" width="28px" height="31px" viewBox="0 0 28 28" version="1.1">
<g id="surface1">
<path style=" stroke:none;fill-rule:nonzero;fill:rgb(0%,0%,0%);fill-opacity:1;" d="M 21.101562 6.898438 C 20.746094 6.542969 20.167969 6.542969 19.8125 6.898438 C 19.453125 7.253906 19.453125 7.832031 19.8125 8.1875 C 23.015625 11.394531 23.015625 16.605469 19.8125 19.8125 C 19.453125 20.167969 19.453125 20.746094 19.8125 21.101562 C 20.167969 21.457031 20.746094 21.457031 21.101562 21.101562 C 25.019531 17.1875 25.019531 10.8125 21.101562 6.898438 Z M 21.101562 6.898438 "/>
<path style=" stroke:none;fill-rule:nonzero;fill:rgb(0%,0%,0%);fill-opacity:1;" d="M 8.1875 19.8125 C 4.984375 16.605469 4.984375 11.394531 8.1875 8.1875 C 8.546875 7.832031 8.546875 7.253906 8.1875 6.898438 C 7.832031 6.542969 7.253906 6.542969 6.898438 6.898438 C 2.980469 10.8125 2.980469 17.1875 6.898438 21.101562 C 7.253906 21.457031 7.832031 21.457031 8.1875 21.101562 C 8.546875 20.746094 8.546875 20.167969 8.1875 19.8125 Z M 8.1875 19.8125 "/>
<path style=" stroke:none;fill-rule:nonzero;fill:rgb(0%,0%,0%);fill-opacity:1;" d="M 14 9.433594 C 11.484375 9.433594 9.433594 11.484375 9.433594 14 C 9.433594 16.515625 11.484375 18.566406 14 18.566406 C 16.515625 18.566406 18.566406 16.515625 18.566406 14 C 18.566406 11.484375 16.515625 9.433594 14 9.433594 Z M 14 16.738281 C 12.488281 16.738281 11.261719 15.511719 11.261719 14 C 11.261719 12.488281 12.488281 11.261719 14 11.261719 C 15.511719 11.261719 16.738281 12.488281 16.738281 14 C 16.738281 15.511719 15.511719 16.738281 14 16.738281 Z M 14 16.738281 "/>
<path style=" stroke:none;fill-rule:nonzero;fill:rgb(0%,0%,0%);fill-opacity:1;" d="M 14.914062 14 C 14.914062 14.503906 14.503906 14.914062 14 14.914062 C 13.496094 14.914062 13.085938 14.503906 13.085938 14 C 13.085938 13.496094 13.496094 13.085938 14 13.085938 C 14.503906 13.085938 14.914062 13.496094 14.914062 14 Z M 14.914062 14 "/>
<path style=" stroke:none;fill-rule:nonzero;fill:rgb(0%,0%,0%);fill-opacity:1;" d="M 14 0 C 6.28125 0 0 6.28125 0 14 C 0 21.71875 6.28125 28 14 28 C 21.71875 28 28 21.71875 28 14 C 28 6.28125 21.71875 0 14 0 Z M 14 26.175781 C 7.289062 26.175781 1.824219 20.710938 1.824219 14 C 1.824219 7.289062 7.289062 1.824219 14 1.824219 C 20.710938 1.824219 26.175781 7.289062 26.175781 14 C 26.175781 20.710938 20.710938 26.175781 14 26.175781 Z M 14 26.175781 "/>
</g>
</svg>
