<?xml version="1.0" encoding="UTF-8" standalone="no"?>
<!-- Created with Inkscape (http://www.inkscape.org/) -->

<svg
   id="svg2"
   viewBox="0 0 76 32"
   version="1.1"
   inkscape:version="1.2 (dc2aeda, 2022-05-15)"
   sodipodi:docname="tick.svg"
   width="76"
   height="32"
   xmlns:inkscape="http://www.inkscape.org/namespaces/inkscape"
   xmlns:sodipodi="http://sodipodi.sourceforge.net/DTD/sodipodi-0.dtd"
   xmlns="http://www.w3.org/2000/svg"
   xmlns:svg="http://www.w3.org/2000/svg"
   xmlns:rdf="http://www.w3.org/1999/02/22-rdf-syntax-ns#"
   xmlns:cc="http://creativecommons.org/ns#"
   xmlns:dc="http://purl.org/dc/elements/1.1/">
  <defs
     id="defs10" />
  <sodipodi:namedview
     id="namedview8"
     pagecolor="#ffffff"
     bordercolor="#000000"
     borderopacity="0.25"
     inkscape:showpageshadow="2"
     inkscape:pageopacity="0.0"
     inkscape:pagecheckerboard="0"
     inkscape:deskcolor="#d1d1d1"
     showgrid="false"
     showguides="true"
     inkscape:zoom="7.375"
     inkscape:cx="16.40678"
     inkscape:cy="16.813559"
     inkscape:window-width="1284"
     inkscape:window-height="648"
     inkscape:window-x="1237"
     inkscape:window-y="1243"
     inkscape:window-maximized="0"
     inkscape:current-layer="svg2" />
  <g
     id="layer1"
     transform="translate(0,-1020.4)">
    <path
       id="path3788"
       style="fill:none;stroke:#555555;stroke-width:2.2954;stroke-linecap:round;stroke-linejoin:round"
       d="m 28.107,15.339 a 13.7445,13.7445 0 1 1 -27.489,0 13.7445,13.7445 0 1 1 27.489,0 z"
       transform="matrix(1.0744,0,0,1.0744,0.56833,1019.9)" />
    <path
       id="path3014"
       style="color:#000000;text-indent:0;text-transform:none;fill:#324f85"
       d="m 28.031,1021.2 c -0.82326,-0.01 -1.633,0.4669 -2.0312,1.1875 l -10.656,16.75 -5.8125,-5.6875 c -0.74433,-0.981 -2.3323,-1.1704 -3.2865,-0.392 -0.95417,0.7784 -1.0875,2.3721 -0.27599,3.2983 l 7.9062,9.6875 c 0.94186,1.1271 3.0077,0.955 3.75,-0.3125 l 12.344,-21.031 c 0.42171,-0.6897 0.44152,-1.6067 0.04999,-2.3139 -0.39153,-0.7073 -1.1791,-1.1773 -1.9875,-1.1861 z" />
  </g>
  <metadata
     id="metadata5">
    <rdf:RDF>
      <cc:Work>
        <dc:format>image/svg+xml</dc:format>
        <dc:type
           rdf:resource="http://purl.org/dc/dcmitype/StillImage" />
        <cc:license
           rdf:resource="http://creativecommons.org/publicdomain/zero/1.0/" />
        <dc:publisher>
          <cc:Agent
             rdf:about="http://openclipart.org/">
            <dc:title>Openclipart</dc:title>
          </cc:Agent>
        </dc:publisher>
        <dc:title>Tick</dc:title>
        <dc:date>2012-10-11T06:30:48</dc:date>
        <dc:description />
        <dc:source>https://openclipart.org/detail/172678/tick-by-zawertun-172678</dc:source>
        <dc:creator>
          <cc:Agent>
            <dc:title>ZaWertun</dc:title>
          </cc:Agent>
        </dc:creator>
        <dc:subject>
          <rdf:Bag>
            <rdf:li>tick</rdf:li>
          </rdf:Bag>
        </dc:subject>
      </cc:Work>
      <cc:License
         rdf:about="http://creativecommons.org/publicdomain/zero/1.0/">
        <cc:permits
           rdf:resource="http://creativecommons.org/ns#Reproduction" />
        <cc:permits
           rdf:resource="http://creativecommons.org/ns#Distribution" />
        <cc:permits
           rdf:resource="http://creativecommons.org/ns#DerivativeWorks" />
      </cc:License>
    </rdf:RDF>
  </metadata>
  <text
     xml:space="preserve"
     style="font-size:17.3333px;fill:#000000"
     x="33.220341"
     y="23.050848"
     id="text172"><tspan
       sodipodi:role="line"
       id="tspan170"
       x="33.220341"
       y="23.050848"
       style="font-style:normal;font-variant:normal;font-weight:normal;font-stretch:normal;font-size:17.3333px;font-family:'Heiti SC';-inkscape-font-specification:'Heiti SC'">Tasks</tspan></text>
  <path
     style="fill:#555555;fill-opacity:1;stroke-width:0.135593"
     d="m 45.373795,22.162878 c -1.453107,-0.295165 -2.746807,-1.330033 -3.406503,-2.724961 -0.489442,-1.034924 -0.619569,-2.007536 -0.407656,-3.046962 0.726521,-3.563568 4.811383,-5.171729 7.524136,-2.962161 l 0.746736,0.608225 v -0.679526 -0.679527 h 0.677967 0.677966 v 4.61017 4.610169 h -0.677966 -0.677967 v -0.693744 -0.693744 l -0.559998,0.505925 c -1.060678,0.958259 -2.597016,1.41014 -3.896715,1.146136 z m 2.724823,-1.582571 c 1.222355,-0.665288 1.787207,-1.682225 1.790961,-3.224375 0.0023,-0.948644 -0.04744,-1.175858 -0.396537,-1.810922 -0.888358,-1.616082 -2.605608,-2.284662 -4.345473,-1.691831 -1.377331,0.469304 -2.367908,1.936266 -2.367908,3.506674 0,1.629811 1.074034,3.114614 2.585942,3.574947 0.737217,0.224462 1.960911,0.06574 2.733015,-0.354493 z"
     id="path830" />
  <path
     style="fill:#555555;fill-opacity:1;stroke-width:0.135593"
     d="M 36.271186,16.338983 V 10.779661 H 34.847458 33.423729 V 10.101695 9.4237288 h 3.457627 3.457627 v 0.6779662 0.677966 h -1.355932 -1.355932 v 5.559322 5.559322 h -0.677966 -0.677967 z"
     id="path832" />
  <path
     style="fill:#555555;fill-opacity:1;stroke-width:0.135593"
     d="M 59.864407,15.457627 V 9.0169492 h 0.675751 0.675752 l 0.03611,3.6154248 0.03611,3.615424 2.033898,-1.78306 2.033898,-1.78306 0.949153,0.0025 c 0.773202,0.002 0.909458,0.03308 0.735023,0.167635 -0.11777,0.09085 -1.264323,1.076254 -2.547895,2.189789 -2.216347,1.922746 -2.321549,2.036075 -2.090956,2.252488 0.133546,0.125333 1.188574,1.069339 2.344506,2.097791 1.155932,1.028451 2.25285,2.013137 2.437596,2.18819 l 0.335901,0.318278 H 66.622843 65.726432 L 63.507281,19.90741 61.28813,17.916471 61.25061,19.90741 61.21309,21.898349 h -0.674341 -0.674341 z"
     id="path834" />
  <path
     style="fill:#555555;fill-opacity:1;stroke-width:0.135593"
     d="m 54.892472,22.180058 c -0.524568,-0.131107 -1.520025,-0.702491 -1.840161,-1.056238 -0.225773,-0.249477 -0.216962,-0.278182 0.213434,-0.695339 l 0.448929,-0.435119 0.260987,0.288387 c 0.412483,0.455788 0.940181,0.667404 1.664283,0.667404 0.552607,0 0.744332,-0.0691 1.091479,-0.393385 0.395735,-0.369671 0.489222,-0.65552 0.425669,-1.301531 -0.05109,-0.519312 -0.412664,-0.866321 -1.679633,-1.611972 -1.425403,-0.838895 -1.90843,-1.32546 -2.129001,-2.144597 -0.422732,-1.569908 0.788741,-3.093239 2.457064,-3.089564 0.629293,0.0014 1.710926,0.44667 2.270439,0.934688 l 0.313249,0.273222 -0.30485,0.412332 c -0.167668,0.226783 -0.358464,0.412332 -0.423991,0.412332 -0.06553,0 -0.331201,-0.161746 -0.590386,-0.359436 -0.310583,-0.236893 -0.698316,-0.381255 -1.137272,-0.423434 -0.602877,-0.05793 -0.705187,-0.02484 -1.07903,0.349007 -0.830382,0.830381 -0.473358,1.57156 1.235224,2.564314 0.591167,0.343491 1.309128,0.858809 1.59547,1.14515 0.800452,0.800452 0.987232,1.959393 0.47732,2.961687 -0.195651,0.384576 -0.94213,1.118953 -1.348136,1.326279 -0.400406,0.204467 -1.429587,0.298655 -1.921087,0.175813 z"
     id="path836" />
  <path
     style="fill:#555555;fill-opacity:1;stroke-width:0.135593"
     d="m 70.161192,22.120004 c -0.629176,-0.169664 -1.233393,-0.532685 -1.642321,-0.986726 -0.214131,-0.237754 -0.203782,-0.27774 0.184018,-0.710997 0.231205,-0.258307 0.449031,-0.399252 0.498078,-0.322285 0.255411,0.400802 1.175251,0.849157 1.742123,0.849157 1.077077,0 1.659174,-0.514571 1.664064,-1.471023 0.0037,-0.724781 -0.355076,-1.101948 -1.805436,-1.897952 -1.284181,-0.704799 -1.937449,-1.420624 -2.063483,-2.261081 -0.108271,-0.721998 0.07527,-1.482958 0.482574,-2.000762 0.385314,-0.489847 1.333517,-0.911555 2.049615,-0.911555 0.678624,0 1.791358,0.487342 2.265777,0.992338 l 0.294101,0.313055 -0.40434,0.387383 c -0.370315,0.354784 -0.424504,0.369696 -0.643964,0.177213 -0.683543,-0.599518 -1.649661,-0.810874 -2.248539,-0.491909 -0.451072,0.240243 -0.626101,0.539338 -0.630842,1.078006 -0.0055,0.621527 0.35933,0.998797 1.740151,1.799637 1.024279,0.594056 1.741724,1.229491 2.035877,1.803159 0.223046,0.434994 0.184954,1.627009 -0.0691,2.162391 -0.306485,0.645869 -1.172266,1.3489 -1.880914,1.52734 -0.712059,0.179298 -0.776716,0.177839 -1.567439,-0.03539 z"
     id="path838" />
</svg>
